<svg width="100" height="21" viewBox="0 0 100 21" fill="none" xmlns="http://www.w3.org/2000/svg">
<path d="M20.56 0.96L16.9 15H12.76L10.52 5.76L8.2 15H4.06L0.5 0.96H4.16L6.18 11.18L8.68 0.96H12.44L14.84 11.18L16.88 0.96H20.56ZM21.5952 9.4C21.5952 8.25333 21.8085 7.24667 22.2352 6.38C22.6752 5.51333 23.2685 4.84667 24.0152 4.38C24.7618 3.91333 25.5952 3.68 26.5152 3.68C27.3018 3.68 27.9885 3.84 28.5752 4.16C29.1752 4.48 29.6352 4.9 29.9552 5.42V3.84H33.3752V15H29.9552V13.42C29.6218 13.94 29.1552 14.36 28.5552 14.68C27.9685 15 27.2818 15.16 26.4952 15.16C25.5885 15.16 24.7618 14.9267 24.0152 14.46C23.2685 13.98 22.6752 13.3067 22.2352 12.44C21.8085 11.56 21.5952 10.5467 21.5952 9.4ZM29.9552 9.42C29.9552 8.56667 29.7152 7.89333 29.2352 7.4C28.7685 6.90667 28.1952 6.66 27.5152 6.66C26.8352 6.66 26.2552 6.90667 25.7752 7.4C25.3085 7.88 25.0752 8.54667 25.0752 9.4C25.0752 10.2533 25.3085 10.9333 25.7752 11.44C26.2552 11.9333 26.8352 12.18 27.5152 12.18C28.1952 12.18 28.7685 11.9333 29.2352 11.44C29.7152 10.9467 29.9552 10.2733 29.9552 9.42ZM42.6694 15L39.2694 10.32V15H35.8494V0.2H39.2694V8.38L42.6494 3.84H46.8694L42.2294 9.44L46.9094 15H42.6694ZM47.5327 9.4C47.5327 8.25333 47.746 7.24667 48.1727 6.38C48.6127 5.51333 49.206 4.84667 49.9527 4.38C50.6993 3.91333 51.5327 3.68 52.4527 3.68C53.2393 3.68 53.926 3.84 54.5127 4.16C55.1127 4.48 55.5727 4.9 55.8927 5.42V3.84H59.3127V15H55.8927V13.42C55.5593 13.94 55.0927 14.36 54.4927 14.68C53.906 15 53.2193 15.16 52.4327 15.16C51.526 15.16 50.6993 14.9267 49.9527 14.46C49.206 13.98 48.6127 13.3067 48.1727 12.44C47.746 11.56 47.5327 10.5467 47.5327 9.4ZM55.8927 9.42C55.8927 8.56667 55.6527 7.89333 55.1727 7.4C54.706 6.90667 54.1327 6.66 53.4527 6.66C52.7727 6.66 52.1927 6.90667 51.7127 7.4C51.246 7.88 51.0127 8.54667 51.0127 9.4C51.0127 10.2533 51.246 10.9333 51.7127 11.44C52.1927 11.9333 52.7727 12.18 53.4527 12.18C54.1327 12.18 54.706 11.9333 55.1727 11.44C55.6527 10.9467 55.8927 10.2733 55.8927 9.42ZM65.2069 0.2V15H61.7869V0.2H65.2069ZM78.2053 9.24C78.2053 9.56 78.1853 9.89333 78.1453 10.24H70.4053C70.4586 10.9333 70.6786 11.4667 71.0653 11.84C71.4653 12.2 71.952 12.38 72.5253 12.38C73.3786 12.38 73.972 12.02 74.3053 11.3H77.9453C77.7586 12.0333 77.4186 12.6933 76.9253 13.28C76.4453 13.8667 75.8386 14.3267 75.1053 14.66C74.372 14.9933 73.552 15.16 72.6453 15.16C71.552 15.16 70.5786 14.9267 69.7253 14.46C68.872 13.9933 68.2053 13.3267 67.7253 12.46C67.2453 11.5933 67.0053 10.58 67.0053 9.42C67.0053 8.26 67.2386 7.24667 67.7053 6.38C68.1853 5.51333 68.852 4.84667 69.7053 4.38C70.5586 3.91333 71.5386 3.68 72.6453 3.68C73.7253 3.68 74.6853 3.90667 75.5253 4.36C76.3653 4.81333 77.0186 5.46 77.4853 6.3C77.9653 7.14 78.2053 8.12 78.2053 9.24ZM74.7053 8.34C74.7053 7.75333 74.5053 7.28667 74.1053 6.94C73.7053 6.59333 73.2053 6.42 72.6053 6.42C72.032 6.42 71.5453 6.58667 71.1453 6.92C70.7586 7.25333 70.5186 7.72667 70.4253 8.34H74.7053ZM83.4295 5.7C83.8295 5.08667 84.3295 4.60667 84.9295 4.26C85.5295 3.9 86.1962 3.72 86.9295 3.72V7.34H85.9895C85.1362 7.34 84.4962 7.52667 84.0695 7.9C83.6429 8.26 83.4295 8.9 83.4295 9.82V15H80.0095V3.84H83.4295V5.7ZM99.9642 3.84L92.9642 20.3H89.2842L91.8442 14.62L87.3042 3.84H91.1242L93.7042 10.82L96.2642 3.84H99.9642Z" fill="black"/>
</svg>
